REM DIRINDEX 1\2,1\3,1\4,1\5\6,1\5\7,1\8
REM DIRNAME cjc115,folder01,folder02,folder03,folder04,folder05,folder06,folder07
TITLE ""
FILE "042 【042】Unit3 (0469 qualified_0480 novelty).mp3" MP3
  TRACK 01 AUDIO
    TITLE "0:"
    INDEX 01 00:00:00
  TRACK 02 AUDIO
    TITLE "2:cjc115_1636"
    INDEX 01 00:00:07
  TRACK 03 AUDIO
    TITLE "0:"
    INDEX 01 00:01:38
  TRACK 04 AUDIO
    TITLE "3:cjc115_1637"
    INDEX 01 00:01:46
  TRACK 05 AUDIO
    TITLE "0:"
    INDEX 01 00:05:10
  TRACK 06 AUDIO
    TITLE "4:cjc115_1638"
    INDEX 01 00:05:16
  TRACK 07 AUDIO
    TITLE "0:"
    INDEX 01 00:09:28
  TRACK 08 AUDIO
    TITLE "2:cjc115_1639"
    INDEX 01 00:10:41
  TRACK 09 AUDIO
    TITLE "0:"
    INDEX 01 00:11:58
  TRACK 10 AUDIO
    TITLE "3:cjc115_1640"
    INDEX 01 00:11:66
  TRACK 11 AUDIO
    TITLE "0:"
    INDEX 01 00:13:04
  TRACK 12 AUDIO
    TITLE "4:cjc115_1641"
    INDEX 01 00:13:16
  TRACK 13 AUDIO
    TITLE "0:"
    INDEX 01 00:17:55
  TRACK 14 AUDIO
    TITLE "2:cjc115_1642"
    INDEX 01 00:18:64
  TRACK 15 AUDIO
    TITLE "0:"
    INDEX 01 00:20:00
  TRACK 16 AUDIO
    TITLE "3:cjc115_1643"
    INDEX 01 00:20:08
  TRACK 17 AUDIO
    TITLE "0:"
    INDEX 01 00:21:17
  TRACK 18 AUDIO
    TITLE "4:cjc115_1644"
    INDEX 01 00:21:25
  TRACK 19 AUDIO
    TITLE "0:"
    INDEX 01 00:24:72
  TRACK 20 AUDIO
    TITLE "2:cjc115_1645"
    INDEX 01 00:26:07
  TRACK 21 AUDIO
    TITLE "0:"
    INDEX 01 00:27:10
  TRACK 22 AUDIO
    TITLE "3:cjc115_1646"
    INDEX 01 00:27:22
  TRACK 23 AUDIO
    TITLE "0:"
    INDEX 01 00:29:21
  TRACK 24 AUDIO
    TITLE "4:cjc115_1647"
    INDEX 01 00:29:25
  TRACK 25 AUDIO
    TITLE "0:"
    INDEX 01 00:32:64
  TRACK 26 AUDIO
    TITLE "2:cjc115_1648"
    INDEX 01 00:33:71
  TRACK 27 AUDIO
    TITLE "0:"
    INDEX 01 00:35:21
  TRACK 28 AUDIO
    TITLE "3:cjc115_1649"
    INDEX 01 00:35:31
  TRACK 29 AUDIO
    TITLE "0:"
    INDEX 01 00:38:04
  TRACK 30 AUDIO
    TITLE "4:cjc115_1650"
    INDEX 01 00:38:14
  TRACK 31 AUDIO
    TITLE "0:"
    INDEX 01 00:41:61
  TRACK 32 AUDIO
    TITLE "2:cjc115_1651"
    INDEX 01 00:42:70
  TRACK 33 AUDIO
    TITLE "0:"
    INDEX 01 00:43:70
  TRACK 34 AUDIO
    TITLE "3:cjc115_1652"
    INDEX 01 00:44:01
  TRACK 35 AUDIO
    TITLE "0:"
    INDEX 01 00:45:04
  TRACK 36 AUDIO
    TITLE "4:cjc115_1653"
    INDEX 01 00:45:14
  TRACK 37 AUDIO
    TITLE "0:"
    INDEX 01 00:49:49
  TRACK 38 AUDIO
    TITLE "2:cjc115_1654"
    INDEX 01 00:50:56
  TRACK 39 AUDIO
    TITLE "0:"
    INDEX 01 00:51:71
  TRACK 40 AUDIO
    TITLE "3:cjc115_1655"
    INDEX 01 00:52:04
  TRACK 41 AUDIO
    TITLE "0:"
    INDEX 01 00:53:70
  TRACK 42 AUDIO
    TITLE "4:cjc115_1656"
    INDEX 01 00:54:07
  TRACK 43 AUDIO
    TITLE "0:"
    INDEX 01 00:59:00
  TRACK 44 AUDIO
    TITLE "2:cjc115_1657"
    INDEX 01 01:00:06
  TRACK 45 AUDIO
    TITLE "0:"
    INDEX 01 01:01:33
  TRACK 46 AUDIO
    TITLE "3:cjc115_1658"
    INDEX 01 01:01:40
  TRACK 47 AUDIO
    TITLE "0:"
    INDEX 01 01:04:39
  TRACK 48 AUDIO
    TITLE "4:cjc115_1659"
    INDEX 01 01:04:47
  TRACK 49 AUDIO
    TITLE "0:"
    INDEX 01 01:09:01
  TRACK 50 AUDIO
    TITLE "2:cjc115_1660"
    INDEX 01 01:10:06
  TRACK 51 AUDIO
    TITLE "0:"
    INDEX 01 01:11:31
  TRACK 52 AUDIO
    TITLE "3:cjc115_1661"
    INDEX 01 01:11:41
  TRACK 53 AUDIO
    TITLE "0:"
    INDEX 01 01:14:72
  TRACK 54 AUDIO
    TITLE "4:cjc115_1662"
    INDEX 01 01:15:05
  TRACK 55 AUDIO
    TITLE "0:"
    INDEX 01 01:18:68
  TRACK 56 AUDIO
    TITLE "2:cjc115_1663"
    INDEX 01 01:20:00
  TRACK 57 AUDIO
    TITLE "0:"
    INDEX 01 01:21:23
  TRACK 58 AUDIO
    TITLE "3:cjc115_1664"
    INDEX 01 01:21:33
  TRACK 59 AUDIO
    TITLE "0:"
    INDEX 01 01:22:52
  TRACK 60 AUDIO
    TITLE "4:cjc115_1665"
    INDEX 01 01:22:62
  TRACK 61 AUDIO
    TITLE "0:"
    INDEX 01 01:25:57
  TRACK 62 AUDIO
    TITLE "2:cjc115_1666"
    INDEX 01 01:26:64
  TRACK 63 AUDIO
    TITLE "0:"
    INDEX 01 01:28:25
  TRACK 64 AUDIO
    TITLE "3:cjc115_1667"
    INDEX 01 01:28:37
  TRACK 65 AUDIO
    TITLE "0:"
    INDEX 01 01:29:58
  TRACK 66 AUDIO
    TITLE "4:cjc115_1668"
    INDEX 01 01:29:68
  TRACK 67 AUDIO
    TITLE "0:"
    INDEX 01 01:33:58
  TRACK 68 AUDIO
    TITLE "2:cjc115_1669"
    INDEX 01 01:34:69
  TRACK 69 AUDIO
    TITLE "0:"
    INDEX 01 01:36:19
  TRACK 70 AUDIO
    TITLE "3:cjc115_1670"
    INDEX 01 01:36:31
  TRACK 71 AUDIO
    TITLE "0:"
    INDEX 01 01:39:19
  TRACK 72 AUDIO
    TITLE "4:cjc115_1671"
    INDEX 01 01:39:29
  TRACK 73 AUDIO
    TITLE "0:"
    INDEX 01 01:42:16
